HIERARCHY
ROOT Hips
{
	OFFSET 0.000000 0.876885 0.000000
	CHANNELS 6 Xposition Yposition Zposition Zrotation Yrotation Xrotation 
	JOINT LeftUpLeg
	{
		OFFSET 0.077586 -0.105444 -0.012845
		CHANNELS 3 Zrotation Yrotation Xrotation
		JOINT LeftLeg
		{
			OFFSET 0.034570 -0.367408 0.064922
			CHANNELS 3 Zrotation Yrotation Xrotation
			JOINT LeftFoot
			{
				OFFSET -0.026107 -0.325721 -0.292849
				CHANNELS 3 Zrotation Yrotation Xrotation
				End Site #name: LeftToeBase
				{
					OFFSET 0.044650 -0.039010 0.126800
				}
			}
		}
	}
	JOINT rightUpLeg
	{
		OFFSET -0.066053 -0.118683 -0.040017
		CHANNELS 3 Zrotation Yrotation Xrotation
		JOINT RightLeg
		{
			OFFSET -0.042052 -0.363325 0.030637
			CHANNELS 3 Zrotation Yrotation Xrotation
			JOINT RightFoot
			{
				OFFSET 0.034385 0.013395 -0.428841
				CHANNELS 3 Zrotation Yrotation Xrotation
				End Site #name: RightToeBase
				{
					OFFSET 0.011202 -0.146687 -0.027352
				}
			}
		}
	}
	JOINT Spine
	{
		OFFSET -0.003615 0.089592 0.007857
		CHANNELS 3 Zrotation Yrotation Xrotation
		JOINT Spine1
		{
			OFFSET 0.001000 0.116091 0.111680
			CHANNELS 3 Zrotation Yrotation Xrotation
			JOINT Spine2
			{
				OFFSET 0.002523 0.026747 0.060522
				CHANNELS 3 Zrotation Yrotation Xrotation
				JOINT Neck
				{
					OFFSET 0.032254 0.217026 0.057095
					CHANNELS 3 Zrotation Yrotation Xrotation
					End Site #name: Head
					{
						OFFSET 0.003408 0.026767 0.074960
					}
				}
				JOINT LeftShoulder
				{
					OFFSET 0.085885 0.122622 0.019278
					CHANNELS 3 Zrotation Yrotation Xrotation
					JOINT LeftArm
					{
						OFFSET 0.119710 -0.056084 0.000359
						CHANNELS 3 Zrotation Yrotation Xrotation
						JOINT LeftForeArm
						{
							OFFSET 0.066607 -0.261223 -0.074288
							CHANNELS 3 Zrotation Yrotation Xrotation
							End Site #name: LeftHand
							{
								OFFSET -0.033663 -0.188689 0.166971
							}
						}
					}
				}
				JOINT RightShoulder
				{
					OFFSET -0.054091 0.150449 0.025661
					CHANNELS 3 Zrotation Yrotation Xrotation
					JOINT RightArm
					{
						OFFSET -0.123418 -0.011880 -0.007639
						CHANNELS 3 Zrotation Yrotation Xrotation
						JOINT RightForeArm
						{
							OFFSET -0.083707 -0.206007 -0.184260
							CHANNELS 3 Zrotation Yrotation Xrotation
							End Site #name: RightHand
							{
								OFFSET -0.077577 -0.251842 0.016934
							}
						}
					}
				}
			}
		}
	}
}
MOTION
Frames: 11
Frame Time: 0.041667
-0.959756 0.950864 5.354055 -5.155729 -1.607695 -10.525692 9.076084 1.836832 20.275070 5.567781 0.823472 -45.169490 -14.333672 -4.979388 29.487650 0.865919 -2.556668 21.391347 -5.599190 -4.308294 -98.441534 -7.591334 1.641968 1.486616 9.809378 -6.230187 -21.727300 1.168209 -3.026962 2.320125 0.202874 -0.398787 1.666290 -0.488619 -1.121731 16.437715 13.538838 7.558997 4.662054 -6.171474 -1.112226 -9.301519 -20.373334 -19.639298 -14.483647 -10.185938 -6.692953 1.883466 8.460681 0.521188 -16.858259 30.717617 22.978385 -31.392134 
-0.960808 0.950749 5.355402 -5.164157 -1.594331 -10.474329 9.142322 1.836629 20.277587 5.576420 0.821195 -45.176869 -14.353605 -5.034013 29.466369 0.861506 -2.551787 21.355669 -5.558244 -4.342369 -98.399190 -7.464839 1.597595 1.357816 9.858231 -6.259926 -21.744378 1.170896 -3.037208 2.342198 0.160102 -0.391814 1.680078 -0.485862 -1.122466 16.387695 13.442051 7.582344 4.668070 -6.204781 -1.121074 -9.352198 -20.480898 -19.747372 -14.442352 -10.212241 -6.736395 1.894799 8.407482 0.551880 -16.845968 30.680641 23.082473 -31.568584 
-0.961842 0.950696 5.356652 -5.174633 -1.582715 -10.446102 9.209704 1.836337 20.272457 5.618663 0.806700 -45.180821 -14.356979 -5.021293 29.487690 0.833549 -2.547134 21.341804 -5.510748 -4.382947 -98.361854 -7.240215 1.536334 1.246177 9.905327 -6.294314 -21.716480 1.160819 -3.012014 2.336190 0.136050 -0.390222 1.686522 -0.494133 -1.098085 16.451767 13.364716 7.581121 4.660488 -6.301810 -1.123134 -9.421873 -20.579586 -19.850805 -14.430785 -10.266533 -6.775517 1.908826 8.401200 0.555909 -16.845434 30.761642 23.198682 -31.681110 
-0.962828 0.950677 5.357763 -5.176692 -1.572370 -10.442724 9.254663 1.835972 20.252021 5.688889 0.779033 -45.153639 -14.325583 -4.935374 29.521147 0.775130 -2.542337 21.352697 -5.466560 -4.423114 -98.355517 -6.940544 1.468499 1.190788 9.924465 -6.314467 -21.657578 1.148611 -2.976032 2.296936 0.132710 -0.391212 1.697963 -0.510345 -1.038624 16.533281 13.329432 7.570358 4.650691 -6.410222 -1.128131 -9.508036 -20.715369 -19.983414 -14.359037 -10.309280 -6.783111 1.915558 8.411892 0.554796 -16.859376 30.893856 23.256009 -31.672750 
-0.963746 0.950587 5.358697 -5.166049 -1.561652 -10.441690 9.271754 1.835601 20.220873 5.752341 0.752639 -45.116314 -14.288154 -4.847505 29.544635 0.697837 -2.536801 21.373863 -5.425835 -4.463245 -98.387246 -6.662799 1.413118 1.191570 9.906952 -6.310578 -21.599086 1.140561 -2.946333 2.235747 0.144025 -0.394450 1.723982 -0.531684 -0.946900 16.589827 13.339489 7.568313 4.650306 -6.471380 -1.140447 -9.587250 -20.926939 -20.176891 -14.176580 -10.333511 -6.765149 1.915210 8.414885 0.561017 -16.878100 31.032599 23.254210 -31.574589 
-0.964578 0.950427 5.359466 -5.143951 -1.549091 -10.440601 9.279918 1.835340 20.197289 5.784493 0.738196 -45.087588 -14.260742 -4.801838 29.540581 0.634873 -2.533473 21.400988 -5.410381 -4.482761 -98.451460 -6.455575 1.376541 1.226905 9.852437 -6.280758 -21.553270 1.141714 -2.935907 2.158159 0.171205 -0.404358 1.771525 -0.547094 -0.862848 16.560050 13.374376 7.546705 4.639941 -6.456694 -1.155457 -9.626635 -21.195081 -20.424604 -13.970845 -10.343621 -6.734461 1.910718 8.393905 0.559361 -16.842032 31.108624 23.211984 -31.461540 
-0.965331 0.950225 5.360081 -5.115697 -1.535523 -10.430792 9.285286 1.835262 20.191022 5.787566 0.737786 -45.093930 -14.255070 -4.834130 29.492108 0.595523 -2.533050 21.431703 -5.416786 -4.483859 -98.536241 -6.358016 1.361852 1.262592 9.787121 -6.240692 -21.531618 1.144006 -2.931752 2.101386 0.207467 -0.420968 1.816152 -0.554825 -0.812921 16.513064 13.403102 7.493874 4.609599 -6.360291 -1.169440 -9.610534 -21.516106 -20.728909 -13.781559 -10.365433 -6.736095 1.913728 8.332709 0.564796 -16.759983 31.160160 23.167507 -31.362209 
-0.966026 0.949985 5.360573 -5.079141 -1.527169 -10.417972 9.281031 1.835125 20.176188 5.789436 0.736472 -45.087829 -14.260284 -4.915520 29.410099 0.579676 -2.534691 21.459060 -5.462265 -4.447740 -98.604041 -6.348564 1.366197 1.308828 9.729516 -6.203959 -21.523280 1.136650 -2.906193 2.053816 0.248649 -0.441276 1.853331 -0.549885 -0.827562 16.472898 13.438601 7.408579 4.559600 -6.241742 -1.170609 -9.538210 -21.802045 -21.009469 -13.674209 -10.397537 -6.767746 1.923650 8.252956 0.558020 -16.621214 31.143474 23.113501 -31.295842 
-0.966671 0.949786 5.361012 -5.043535 -1.522806 -10.407878 9.266963 1.835007 20.160807 5.795036 0.735823 -45.100287 -14.252686 -4.955169 29.349483 0.582057 -2.535541 21.463984 -5.542314 -4.377406 -98.640547 -6.398583 1.381263 1.345977 9.703404 -6.187530 -21.517720 1.116017 -2.852113 2.024171 0.295399 -0.460472 1.874315 -0.544407 -0.858658 16.489077 13.489005 7.323838 4.511147 -6.125997 -1.170107 -9.461731 -22.000863 -21.217144 -13.669390 -10.445501 -6.819763 1.939400 8.168875 0.551879 -16.476739 31.082758 23.066211 -31.269145 
-0.967284 0.949696 5.361464 -5.013712 -1.514338 -10.420780 9.238421 1.835037 20.156923 5.807378 0.734219 -45.126081 -14.227955 -4.922505 29.335933 0.581959 -2.536061 21.468362 -5.629826 -4.297670 -98.646188 -6.454286 1.390881 1.334344 9.691346 -6.182296 -21.496637 1.091782 -2.793391 2.017701 0.345319 -0.472201 1.885312 -0.546973 -0.868895 16.582035 13.537529 7.282252 4.489349 -6.032020 -1.190557 -9.467934 -22.109378 -21.329485 -13.661949 -10.478496 -6.862677 1.951604 8.098856 0.555593 -16.376189 31.020474 23.022319 -31.248339 
-0.967861 0.949687 5.361971 -4.999391 -1.499297 -10.448718 9.207957 1.835180 20.163249 5.816092 0.736443 -45.175581 -14.190328 -4.808729 29.388285 0.566817 -2.532049 21.448513 -5.700176 -4.230269 -98.612729 -6.466199 1.385475 1.276989 9.680700 -6.178393 -21.472316 1.075348 -2.761271 2.059958 0.391937 -0.470107 1.870800 -0.561498 -0.831869 16.725149 13.581729 7.324597 4.519523 -5.960471 -1.231908 -9.557803 -22.155420 -21.355096 -13.545354 -10.458664 -6.888624 1.954008 8.042531 0.582559 -16.349820 31.001355 22.981832 -31.202918 
